<svg width="120" height="55" viewBox="0 0 120 55" xmlns="http://www.w3.org/2000/svg"><g fill="none" fill-rule="evenodd"><path d="M114.2 5.4c-1.2-1.8-3.7-2.2-5.5-.9-1.7 1.3-2.1 3.7-.9 5.5 5.6 7.8 4.6 18.8-2.2 25.6-7 7-18.2 7.7-26.1 1.6-1.7-1.4-4.2-1.1-5.5.7-1.4 1.7-1 4.2.7 5.5 5 3.9 11 5.8 17 5.8 7.1 0 14.1-2.7 19.4-8 9.6-9.5 10.9-24.9 3.1-35.8zM88.4 21.1c1.8 1.2 4.3.8 5.6-1L107.5.8 88.4 14.6c-.4.2-.7.5-1 .9-1.2 1.8-.8 4.3 1 5.6z" fill="#00B7C7"/><path d="M2.4 50.7c-.9-.4-1.5-1.2-1.8-2.2-.1-.5-.2-1.1-.2-1.7v-1.9H1c.2 0 .3.1.5.3.2.1.3.4.3.9v.7c0 .3.1.7.1 1 .1.4.2.7.4 1 .2.3.4.6.7.8.3.1.6.2 1 .2h3.5c.7 0 1.3-.2 1.7-.7.4-.6.6-1.3.6-2.4v-.4H4.9v-1c0-.5.1-1.1.2-1.6s.3-1 .7-1.4c.3-.4.7-.7 1.1-.9.5-.3 1.1-.4 1.7-.4h2.2c.7 0 1.3.1 1.8.4.3.1.6.3.8.5.2.3.4.5.6.8.2.3.3.6.4 1 .1.3.1.7.1 1 .1.2.1.4.1.5v.5c.1.2.1.4.2.5 0 .2.1.4.2.6.4.6 1 1 1.8 1h1V49h-1c-.6 0-1.1-.1-1.6-.3-.4-.2-.9-.5-1.3-.9-.2-.4-.5-.9-.6-1.4-.1-.3-.1-.7-.2-1 0-.4 0-.8-.1-1.1-.1-.6-.3-1.1-.6-1.4-.4-.4-.9-.6-1.5-.6H8.7c-.7 0-1.3.2-1.7.7-.4.5-.6 1.1-.6 2h4.9v1.8c0 .6-.1 1.2-.2 1.7-.2.8-.6 1.4-1.2 1.9-.6.4-1.4.7-2.3.7H4.1c-.7 0-1.2-.1-1.7-.4zm1.4 3.1c0-.3.1-.6.3-.7.2-.2.4-.3.6-.3.3 0 .5.1.7.3.2.1.3.4.3.7 0 .2-.1.4-.3.6-.2.2-.4.3-.7.3-.2 0-.4-.1-.6-.3-.2-.2-.3-.4-.3-.6zm2.2 0c0-.3 0-.6.2-.7.2-.2.4-.3.7-.3.2 0 .5.1.6.3.2.1.3.4.3.7 0 .2-.1.4-.3.6-.1.2-.4.3-.6.3-.3 0-.5-.1-.7-.3-.2-.2-.2-.4-.2-.6z" fill="#A7A9AC"/><path d="M27.7 47.6c-.3.5-.7.9-1.2 1.2-.5.3-1.2.4-1.9.4-.6 0-1.2-.1-1.8-.4-.5-.2-1-.6-1.3-1.1-.3.4-.8.8-1.2 1-.5.2-1.1.3-1.7.3h-1.1v-1.2h1.2c.4 0 .7-.1 1-.3.3-.2.5-.4.7-.7.2-.2.3-.5.4-.9 0-.3.1-.7.1-1 0-.6.1-1.1.2-1.6.2-.5.4-.9.8-1.3.3-.4.7-.7 1.2-.9.4-.2 1-.3 1.6-.3.6 0 1.1.1 1.6.3.4.2.8.5 1.1.9.3.3.6.8.7 1.3.2.5.2 1 .2 1.6 0 .4.1.7.2 1.1 0 .3.2.6.3.9.2.2.4.4.7.6.3.2.6.3 1 .3h1.2V49h-1.1c-.3 0-.5 0-.8-.1-.3 0-.5-.1-.8-.2-.3-.1-.5-.2-.7-.4-.3-.2-.5-.4-.6-.7zM24.6 42c-.4 0-.8.1-1.1.3-.2.2-.5.4-.6.6-.2.3-.3.6-.4 1-.1.3-.1.7-.1 1 0 .4 0 .8.1 1.2l.3.9c.2.3.4.5.7.7.3.2.7.3 1.1.3.4 0 .8-.1 1.1-.3.3-.2.5-.4.7-.7.1-.3.3-.6.3-1 .1-.3.1-.7.1-1.1 0-.3 0-.7-.1-1.1l-.3-.9c-.2-.3-.4-.5-.7-.6-.3-.2-.6-.3-1.1-.3z" fill="#A7A9AC"/><path d="M34 48.7c-.5.2-1.1.3-1.7.3h-.9v-1.2h1c.4 0 .8-.1 1-.3.3-.2.6-.4.7-.7.2-.3.3-.7.4-1 0-.4.1-.7.1-1.1v-3.6c.2-.1.4-.1.6 0 .2 0 .3.1.5.2.2.2.3.5.3.9v2.6c0 .5-.1 1.1-.2 1.6s-.3.9-.6 1.3-.7.7-1.2 1zm-1.7 3c0-.3.1-.5.3-.7.2-.2.4-.2.7-.2.2 0 .4 0 .6.2.2.2.3.4.3.7 0 .3-.1.5-.3.7-.2.1-.4.2-.6.2-.3 0-.5 0-.7-.2-.2-.2-.3-.4-.3-.7zm2.2 0c0-.3.1-.5.2-.7.2-.2.4-.2.7-.2.3 0 .5 0 .7.2.1.2.2.4.2.7 0 .3-.1.5-.2.7-.2.2-.4.2-.7.2-.3 0-.5 0-.7-.2-.1-.2-.2-.4-.2-.7zM42.5 49c-.4 0-.8-.1-1.2-.2-.4-.1-.7-.2-1-.4-.2-.1-.4-.3-.6-.4-.1-.2-.2-.3-.2-.4 0-.2 0-.4.1-.5.2-.2.3-.3.4-.5l.2.2c.1.1.3.3.5.4.3.1.5.3.8.4.3.1.6.2.9.2h3v-2.6c0-.4 0-.8-.1-1.1-.1-.4-.3-.7-.4-1-.2-.2-.5-.5-.8-.6-.3-.2-.7-.3-1.1-.3-.5 0-.8.1-1.2.3-.3.1-.6.4-.8.7h-.2c-.1-.2-.2-.3-.3-.4-.1-.2-.1-.4-.1-.5 0-.2.1-.4.2-.5.2-.2.3-.3.5-.4.5-.2 1-.4 1.5-.4.6-.1 1.1 0 1.6.1.5.2.9.4 1.3.7.4.4.8.8 1 1.3l.3.9v5h-4.3zM51.3 48.7c-.4-.2-.8-.5-1.1-.9-.3-.4-.5-.9-.7-1.4-.1-.5-.2-1.1-.2-1.6v-7.9h.6l.6.3c.2.2.3.5.3.9v6.6c0 .3 0 .7.1 1.1.1.4.2.7.3 1 .2.3.5.5.7.7.3.2.7.3 1.1.3h1.4V49h-1.3c-.7 0-1.3-.1-1.8-.3z" fill="#A7A9AC"/><path d="M54.1 47.8h8.3c0-.7 0-1.2-.1-1.7 0-.4-.1-.8-.3-1.1-.1-.4-.3-.6-.5-.9-.1-.2-.3-.4-.5-.5-.5-.3-1.1-.5-1.7-.5-.6 0-1.1.1-1.5.2-.4.2-.9.4-1.2.8-.3.2-.5.4-.8.4-.2.1-.4.1-.6 0-.2 0-.4-.1-.6-.3l5.3-6c.3-.3.5-.5.8-.5.2-.1.5-.1.6-.1.3.1.5.2.7.4l-3.5 3.9c1-.2 1.9-.1 2.6.2.3.1.7.3 1 .6.3.2.6.5.8.9.2.4.4.9.6 1.4.1.6.2 1.3.2 2v2h-9.6v-1.2zM65.6 35.7c0-.1 0-.2.1-.4 0 0 .1 0 .1-.1h.7V35c0-.5.1-.9.4-1.2.3-.3.6-.4 1.1-.4.3 0 .7.1 1 .4l.1.1-.1.1c-.2.2-.3.3-.5.3-.1 0-.2 0-.3-.1H67.9c-.2 0-.3 0-.4.2-.1.1-.2.3-.2.5v.3h1.9v.7h-3.6v-.2zm2.5 1.5c.2.2.3.5.3.9V49H67V36.9h.5c.2.1.4.1.6.3z" fill="#A7A9AC"/><path d="M61.7 5.9V2.3h-3.9c-1 0-1.8.8-1.8 1.8v3.6h4c1 0 1.7-.8 1.7-1.8zm-48 0V2.3H9.8C8.7 2.3 8 3.1 8 4.1v3.6h4c.9 0 1.7-.8 1.7-1.8zm31.4 10.7c0-1-.2-1.9-.6-2.9-.6-1.3-1.5-2.5-2.8-3.3C40.4 9.5 39 9 37.4 9h-4.8c-1.6 0-3 .5-4.3 1.4-1.3.8-2.2 2-2.8 3.3-.4 1-.6 1.9-.6 2.9v4.6c0 1 .2 2 .6 2.9.6 1.4 1.5 2.5 2.8 3.4 1.3.9 2.7 1.3 4.3 1.3h4.8c1 0 2-.2 2.9-.5-.4 2-2.1 2.9-4.6 2.9h-1.2v4.7h2.9c1.6 0 3.1-.5 4.3-1.3 1.3-.9 2.2-2.1 2.8-3.4.4-.9.6-1.9.6-2.9V16.6zm-4.8 3.9c-.1 2.5-1.9 3.7-4.7 3.7H34c-2.6-.1-4.3-1.3-4.4-3.8v-2.9c.1-2.7 1.9-3.8 4.8-3.8H36c2.6.1 4.2 1.3 4.3 3.8v3zm24-8.3v11.2c0 2.7-1.9 4-4.8 4h-1.6c-2.7-.1-4.4-1.4-4.4-4V12.2l-4.7.8v11.4c0 1 .2 2 .6 2.9.6 1.4 1.5 2.5 2.8 3.4 1.3.9 2.7 1.3 4.3 1.3h4.8c1.6 0 3-.4 4.3-1.3 1.3-.9 2.2-2 2.8-3.4.4-.9.6-1.9.6-2.9V13l-4.7-.8zM16.2 23.4c0 2.7-1.9 4-4.8 4H9.8c-2.6-.1-4.3-1.4-4.3-4V12.2L.7 13v11.4c0 1 .2 2 .6 2.9.6 1.4 1.5 2.5 2.8 3.4 1.3.9 2.7 1.3 4.3 1.3h4.8c1.6 0 3-.4 4.3-1.3 1.3-.9 2.2-2 2.8-3.4.4-.9.6-1.9.6-2.9V13l-4.7-.8v11.2z" fill="#57585B"/></g></svg>